name C:\Users\antoi\Documents\MyRepositories\upper-imu-dc\Results\main_tracking\Case_84\kinematics.mot
datacolumns 43
datarows 11
range 1.44000000 1.64000000
endheader 
time	clav_prot	clav_elev	scapula_abduction	scapula_elevation	scapula_upward_rot	scapula_winging	plane_elv	shoulder_elv	axial_rot	TrapeziusScapula_M/activation	TrapeziusScapula_S/activation	TrapeziusScapula_I/activation	TrapeziusClavicle_S/activation	SerratusAnterior_I/activation	SerratusAnterior_M/activation	SerratusAnterior_S/activation	Rhomboideus_S/activation	Rhomboideus_I/activation	LevatorScapulae/activation	Coracobrachialis/activation	DeltoideusClavicle_A/activation	DeltoideusScapula_P/activation	DeltoideusScapula_M/activation	LatissimusDorsi_S/activation	LatissimusDorsi_M/activation	LatissimusDorsi_I/activation	PectoralisMajorClavicle_S/activation	PectoralisMajorThorax_I/activation	PectoralisMajorThorax_M/activation	TeresMajor/activation	Infraspinatus_I/activation	Infraspinatus_S/activation	PectoralisMinor/activation	TeresMinor/activation	Subscapularis_S/activation	Subscapularis_M/activation	Subscapularis_I/activation	Supraspinatus_P/activation	Supraspinatus_A/activation	TRIlong/activation	BIC_long/activation	BIC_brevis/activation	
          1.44000000	        -16.78087217	         -5.19821698	          2.85648535	         -6.39230452	         21.16600474	          2.94947562	         59.63740065	         58.46247245	        -23.30888974	          0.04609585	          0.07596998	          0.03278331	          0.05723617	          0.07913934	          0.08791068	          0.03182246	          0.04172266	          0.02295066	          0.04382795	          0.06911118	          0.11944901	          0.01000000	          0.08152756	          0.01000000	          0.01000000	          0.01000000	          0.07730957	          0.01000000	          0.02186372	          0.01000000	          0.06691213	          0.03000801	          0.01000000	          0.04391860	          0.02511735	          0.02692029	          0.01000000	          0.05039724	          0.05234844	          0.01000000	          0.03539367	          0.12066274	
          1.46000000	        -16.81933741	         -4.96434032	          3.17665815	         -6.36684367	         21.83058143	          2.71473034	         60.11051983	         59.35571432	        -22.84318307	          0.04604740	          0.07606263	          0.03271949	          0.05739464	          0.07894701	          0.08848391	          0.03193250	          0.04157304	          0.02261630	          0.04363928	          0.06908523	          0.11918180	          0.01000000	          0.08253339	          0.01000000	          0.01000000	          0.01000000	          0.07741722	          0.01000000	          0.02183712	          0.01000000	          0.06802793	          0.03025000	          0.01000000	          0.04469093	          0.02509835	          0.02686195	          0.01000000	          0.05031642	          0.05207244	          0.01000000	          0.03481668	          0.12071271	
          1.48000000	        -16.86555360	         -4.73722861	          3.47926740	         -6.34231738	         22.48183253	          2.48834306	         60.53208400	         60.22129459	        -22.35976214	          0.04600684	          0.07623953	          0.03265547	          0.05756364	          0.07900768	          0.08917165	          0.03200010	          0.04143310	          0.02235954	          0.04345209	          0.06920027	          0.11905973	          0.01000000	          0.08364586	          0.01000000	          0.01000000	          0.01000000	          0.07757598	          0.01000000	          0.02188496	          0.01000000	          0.06911918	          0.03049107	          0.01000000	          0.04542781	          0.02509173	          0.02679875	          0.01000000	          0.05026420	          0.05185427	          0.01000000	          0.03433409	          0.12083927	
          1.50000000	        -16.91907045	         -4.51670523	          3.76629098	         -6.31910699	         23.12195869	          2.26959082	         60.90832987	         61.06019436	        -21.85926737	          0.04598846	          0.07637549	          0.03254768	          0.05773463	          0.07922621	          0.08989444	          0.03203034	          0.04128268	          0.02203895	          0.04325686	          0.06941639	          0.11901380	          0.01000000	          0.08482858	          0.01000000	          0.01000000	          0.01000000	          0.07774271	          0.01000000	          0.02186762	          0.01000000	          0.07018771	          0.03068057	          0.01000000	          0.04615269	          0.02513294	          0.02676016	          0.01000000	          0.05025022	          0.05172300	          0.01000000	          0.03385396	          0.12103685	
          1.52000000	        -16.97944234	         -4.30321088	          4.03985689	         -6.29802507	         23.75312263	          2.05799288	         61.24443349	         61.87419249	        -21.34387032	          0.04588444	          0.07657481	          0.03242835	          0.05795775	          0.07936181	          0.09073001	          0.03208263	          0.04108595	          0.02153072	          0.04299205	          0.06970120	          0.11911963	          0.01000000	          0.08601825	          0.01000000	          0.01000000	          0.01000000	          0.07803004	          0.01000000	          0.02191847	          0.01000000	          0.07126137	          0.03085350	          0.01000000	          0.04691597	          0.02515553	          0.02669472	          0.01000000	          0.05026022	          0.05166446	          0.01000000	          0.03349473	          0.12124159	
          1.54000000	        -17.04607144	         -4.09848052	          4.30195276	         -6.28058926	         24.37640718	          1.85376155	         61.54432841	         62.66652695	        -20.81909113	          0.04569054	          0.07673007	          0.03234099	          0.05812846	          0.07920872	          0.09172988	          0.03223879	          0.04073449	          0.02086642	          0.04250205	          0.07006073	          0.11924561	          0.01000000	          0.08716859	          0.01000000	          0.01000000	          0.01000000	          0.07841149	          0.01000000	          0.02204830	          0.01000000	          0.07243907	          0.03105412	          0.01000000	          0.04749470	          0.02516991	          0.02664038	          0.01000000	          0.05025604	          0.05151156	          0.01000000	          0.03305730	          0.12150902	
          1.56000000	        -17.11824444	         -3.90466846	          4.55438319	         -6.26845047	         24.99215086	          1.65739760	         61.81148571	         63.44129543	        -20.29400196	          0.04563233	          0.07670453	          0.03232494	          0.05822599	          0.07978474	          0.09251247	          0.03233989	          0.04053092	          0.02049557	          0.04227346	          0.07064946	          0.11937336	          0.01000000	          0.08842217	          0.01000000	          0.01000000	          0.01000000	          0.07860283	          0.01000000	          0.02229113	          0.01000000	          0.07364675	          0.03112898	          0.01000000	          0.04830846	          0.02514972	          0.02655385	          0.01000000	          0.05029122	          0.05152352	          0.01000000	          0.03278107	          0.12174839	
          1.58000000	        -17.19519136	         -3.72290684	          4.79866908	         -6.26243203	         25.60042516	          1.46906574	         62.04961070	         64.20334414	        -19.77877062	          0.04553819	          0.07677690	          0.03227439	          0.05842074	          0.08010048	          0.09334677	          0.03241038	          0.04027686	          0.01980979	          0.04190165	          0.07121993	          0.11948483	          0.01000000	          0.08971329	          0.01000000	          0.01000000	          0.01000000	          0.07899637	          0.01000000	          0.02244565	          0.01000000	          0.07495013	          0.03148146	          0.01000000	          0.04895613	          0.02514030	          0.02642116	          0.01000000	          0.05038967	          0.05150186	          0.01000000	          0.03239824	          0.12193646	
          1.60000000	        -17.27656834	         -3.55367714	          5.03579216	         -6.26299165	         26.20179224	          1.28867447	         62.26257889	         64.95737813	        -19.28267402	          0.04546473	          0.07678421	          0.03226772	          0.05863374	          0.08027762	          0.09409935	          0.03244470	          0.03994123	          0.01904075	          0.04147869	          0.07139441	          0.11931446	          0.01000000	          0.09100802	          0.01000000	          0.01000000	          0.01000000	          0.07901093	          0.01000000	          0.02237414	          0.01000000	          0.07608403	          0.03157554	          0.01000000	          0.04975857	          0.02515771	          0.02634804	          0.01000000	          0.05030840	          0.05142900	          0.01000000	          0.03212482	          0.12163745	
          1.62000000	        -17.36251689	         -3.39658308	          5.26610176	         -6.27006844	         26.79738149	          1.11579389	         62.45443127	         65.70714693	        -18.80888951	          0.04544588	          0.07680987	          0.03237402	          0.05876298	          0.08080493	          0.09487299	          0.03250211	          0.03969636	          0.01861872	          0.04114795	          0.07178267	          0.11902381	          0.01000000	          0.09227032	          0.01000000	          0.01000000	          0.01000000	          0.07904982	          0.01000000	          0.02240101	          0.01000000	          0.07719460	          0.03184644	          0.01000000	          0.05047905	          0.02513659	          0.02621661	          0.01000000	          0.05029271	          0.05132127	          0.01000000	          0.03183949	          0.12123976	
          1.64000000	        -17.45375684	         -3.25021526	          5.48924351	         -6.28301558	         27.38905068	          0.94959257	         62.62969720	         66.45548310	        -18.35857229	          0.04544887	          0.07688529	          0.03249563	          0.05892955	          0.08117240	          0.09561169	          0.03255600	          0.03948991	          0.01802006	          0.04080117	          0.07202014	          0.11854215	          0.01000000	          0.09354630	          0.01000000	          0.01000000	          0.01000000	          0.07895758	          0.01000000	          0.02213617	          0.01000000	          0.07825133	          0.03202382	          0.01000000	          0.05120015	          0.02520149	          0.02615377	          0.01000000	          0.05025876	          0.05126669	          0.01000000	          0.03159019	          0.12055125	
